<svg width="128" height="128" viewBox="0 0 128 128" xmlns="http://www.w3.org/2000/svg">
  <defs>
    <linearGradient id="bowGrad" x1="0%" y1="0%" x2="100%" y2="100%">
      <stop offset="0%" stop-color="#ff9ac1" />
      <stop offset="100%" stop-color="#ff5f9e" />
    </linearGradient>
  </defs>
  <path d="M64 48c-13-13-35-19-46-8-11 11-3 31 14 39 13 6 25 4 32-4V48z" fill="url(#bowGrad)" />
  <path d="M64 48c13-13 35-19 46-8 11 11 3 31-14 39-13 6-25 4-32-4V48z" fill="url(#bowGrad)" />
  <rect x="52" y="42" width="24" height="32" rx="10" fill="#ff4f93" />
  <path d="M58 74l-7 36h14l5-22-12-14z" fill="#ff6ea8" />
  <path d="M70 74l12 14-5 22H63l7-36z" fill="#ff84b5" />
</svg>
